<?xml version="1.0" encoding="UTF-8"?>
<!-- Generator: Adobe Illustrator 15.0.2, SVG Export Plug-In . SVG Version: 6.00 Build 0)  -->
<!DOCTYPE svg PUBLIC "-//W3C//DTD SVG 1.1//EN" "http://www.w3.org/Graphics/SVG/1.1/DTD/svg11.dtd">
<svg xmlns="http://www.w3.org/2000/svg" xmlns:xlink="http://www.w3.org/1999/xlink" version="1.1" id="Layer_1" x="0px" y="0px" width="512px" height="512px" viewBox="0 0 512 512" enable-background="new 0 0 512 512" xml:space="preserve">
<g>
	<path d="M440.406,202.914c-4.031-14.016-9.5-27.359-16.438-39.875l31.812-66.914c-11.812-14.719-25.188-28.094-39.906-39.898   l-66.906,31.805c-12.5-6.914-25.875-12.414-39.875-16.445L284.188,1.633C274.938,0.609,265.531,0,256,0   c-9.539,0-18.945,0.609-28.195,1.633l-24.891,69.953c-13.984,4.031-27.359,9.531-39.844,16.445L96.125,56.227   c-14.719,11.805-28.094,25.18-39.898,39.898l31.805,66.914c-6.914,12.477-12.414,25.859-16.445,39.875L1.633,227.805   C0.609,237.055,0,246.461,0,256c0,9.531,0.609,18.938,1.633,28.188l69.984,24.906c4.031,14,9.5,27.344,16.445,39.875   l-31.805,66.906c11.805,14.719,25.18,28.125,39.898,39.906l66.914-31.812c12.484,6.906,25.859,12.406,39.875,16.438l24.898,70   C237.055,511.391,246.461,512,256,512c9.531,0,18.938-0.609,28.188-1.625l24.906-70c14-4.031,27.344-9.5,39.875-16.438   l66.906,31.812c14.719-11.812,28.125-25.188,39.906-39.906l-31.812-66.906c6.906-12.5,12.406-25.875,16.438-39.875l70-24.906   C511.391,274.938,512,265.531,512,256c0-9.539-0.609-18.945-1.625-28.195L440.406,202.914z M256,384c-70.688,0-128-57.312-128-128   s57.312-128,128-128s128,57.312,128,128S326.688,384,256,384z M192,256c0,35.344,28.656,64,64,64s64-28.656,64-64s-28.656-64-64-64   S192,220.656,192,256z" fill="#DC143C"/>
</g>
</svg>
