<?xml version="1.0" encoding="UTF-8"?>
<!-- Generator: Adobe Illustrator 15.0.2, SVG Export Plug-In . SVG Version: 6.00 Build 0)  -->
<!DOCTYPE svg PUBLIC "-//W3C//DTD SVG 1.1//EN" "http://www.w3.org/Graphics/SVG/1.1/DTD/svg11.dtd">
<svg xmlns="http://www.w3.org/2000/svg" xmlns:xlink="http://www.w3.org/1999/xlink" version="1.1" id="Layer_1" x="0px" y="0px" width="1024px" height="1024px" viewBox="0 0 1024 1024" enable-background="new 0 0 1024 1024" xml:space="preserve">
<path d="M819.2,0H204.8C92,0,0,92.2,0,204.8v614.4C0,931.8,92,1024,204.8,1024h614.4c112.6,0,204.8-92.2,204.8-204.8V204.8  C1024,92.2,931.8,0,819.2,0z M879,337.8l-15.8,93L774.6,463.6L702,403.4l15.8-93.2l88.4-33L879,337.8z M786.2,594.8  c-61.601,22.8-129,7-180-35.399L217.8,831.2L128,702.8L528,423c-16.8-95.2,28.6-188.4,112.8-219.6c56.2-20.8,117.2-9.6,166.2,25  l-136,50.4L646.6,424L760,518l136-50.4C881.2,525.6,842.4,574,786.2,594.8z" fill="#FF7F50"/>
</svg>
